<svg width="102" height="56" viewBox="0 0 102 56" fill="none" xmlns="http://www.w3.org/2000/svg">
<g filter="url(#filter0_dd_784_1544)">
<rect x="6.33313" y="2" width="89" height="44" rx="22" fill="white"/>
<g clip-path="url(#clip0_784_1544)">
<path d="M53.3361 34.9212C53.3361 34.9212 58.513 37.9198 51.1683 38.4406C51.1683 38.4406 50.0553 42.7367 46.6392 37.0692C46.6392 37.0692 43.3654 40.2342 44.3803 33.3417C44.3803 33.3417 44.5027 32.9442 43.6828 33.086C42.863 33.2277 42.8174 31.7762 43.6828 31.0027C44.5482 30.2291 44.6678 28.2737 44.4272 27.8839C44.1867 27.494 46.6392 26.4015 46.6392 26.4015C46.6392 26.4015 48.7614 26.9716 49.8446 26.0594C50.9278 25.1472 52.939 26.4616 51.332 29.0627C51.332 29.0627 51.0474 29.7083 53.3361 29.9687C55.6249 30.2291 56.3466 32.5759 53.3361 34.9212Z" fill="#232C4B"/>
<path d="M21.3288 34.9212C21.3288 34.9212 16.1505 37.9198 23.4952 38.4406C23.4952 38.4406 24.6097 42.7367 28.0258 37.0692C28.0258 37.0692 31.2995 40.2342 30.2846 33.3417C30.2846 33.3417 30.1608 32.9442 30.9821 33.086C31.8034 33.2277 31.8475 31.7762 30.9821 31.0027C30.1167 30.2291 29.9971 28.2737 30.2377 27.8839C30.4782 27.494 28.0258 26.4015 28.0258 26.4015C28.0258 26.4015 25.9021 26.9716 24.8203 26.0594C23.7385 25.1472 21.7259 26.4616 23.34 29.0627C23.34 29.0627 23.6247 29.7083 21.3359 29.9687C19.0471 30.2291 18.3183 32.5759 21.3288 34.9212Z" fill="#232C4B"/>
<path d="M34.9902 28.9918H39.8055V32.5112C39.8059 33.2021 39.5529 33.865 39.1021 34.3541C38.6514 34.8433 38.0397 35.1187 37.4014 35.1199C37.0847 35.1204 36.771 35.0531 36.4783 34.9221C36.1856 34.791 35.9196 34.5988 35.6956 34.3563C35.4716 34.1138 35.2941 33.8259 35.173 33.509C35.052 33.1922 34.9899 32.8526 34.9902 32.5096V28.9918Z" fill="#B27042"/>
<path d="M46.7288 23.2026C45.6784 22.6864 45.1546 24.8036 45.1546 24.8036C45.1546 24.8036 45.0122 31.4295 37.6619 33.3048C37.6619 33.3048 36.1361 33.6253 34.9902 32.6499C33.8444 31.6745 29.6455 30.3385 29.5501 25.5787C28.7872 22.1686 27.6414 23.3012 27.6414 23.3012C26.6877 24.6433 28.6918 27.021 28.6918 27.021C28.6918 28.3631 29.8305 28.3631 29.8305 28.3631C29.8539 28.5276 29.902 28.6869 29.9728 28.8346C30.2824 29.5663 30.7396 30.2134 31.3108 30.7284C32.0802 31.4164 32.8946 32.0431 33.7476 32.6037C34.317 32.9118 35.8471 33.8364 35.8471 33.8364C36.4022 34.1631 37.3018 34.0876 38.0277 33.9443C38.6065 33.8268 39.1556 33.5779 39.639 33.2139C40.4688 32.5975 42.147 31.5636 42.147 31.5636C44.2464 30.3308 44.5325 28.2568 44.5325 28.2568C45.6712 28.36 45.7723 26.9146 45.7723 26.9146L46.4413 26.1904C46.4413 26.1904 47.7778 23.7188 46.7288 23.2026ZM29.1758 27.0256C28.985 26.8176 28.6989 26.3014 28.6989 25.8884C28.6989 25.4754 28.5082 24.5447 28.5082 24.856C28.5082 25.1672 28.0314 24.7527 28.0314 24.7527C28.1324 23.765 28.4584 23.9592 28.743 24.3567C29.0488 24.7986 29.2257 25.3293 29.2512 25.8807C29.2725 26.4462 29.2868 27.1535 29.1758 27.0256ZM45.9716 24.856C45.9716 24.5478 45.7794 25.4723 45.7794 25.8884C45.7794 26.3044 45.4947 26.8129 45.3026 27.0256C45.1859 27.1519 45.2001 26.4462 45.23 25.8807C45.2538 25.3289 45.431 24.7978 45.7381 24.3567C46.0228 23.9592 46.3473 23.765 46.4498 24.7527C46.4427 24.7527 45.9716 25.1657 45.9716 24.856Z" fill="#BC7748"/>
<path d="M29.2441 25.8807C29.2726 26.4462 29.2868 27.1519 29.1701 27.0256C28.9794 26.8175 28.6933 26.3013 28.6933 25.8884C28.6933 25.4754 28.5025 24.5447 28.5025 24.856C28.5025 25.1672 28.0257 24.7527 28.0257 24.7527C28.1268 23.765 28.4527 23.9592 28.7374 24.3567C29.0426 24.7988 29.219 25.3294 29.2441 25.8807Z" fill="#C57D4C"/>
<path d="M44.4386 17.4165C44.4386 17.4165 45.2015 23.9253 45.1503 24.8036C45.1503 24.8036 45.008 31.4295 37.6577 33.3048C37.6577 33.3048 36.166 33.576 34.986 32.6499C33.7448 31.6745 29.6412 30.3385 29.5458 25.5787C29.5458 25.5787 30.5009 17.72 30.787 17.0035C31.0731 16.287 32.7 13.4902 36.9944 13.2853C41.2887 13.0804 44.4386 17.4165 44.4386 17.4165Z" fill="#C57D4C"/>
<path d="M46.4427 24.7527C46.4427 24.7527 45.9659 25.1657 45.9659 24.856C45.9659 24.5463 45.7737 25.4723 45.7737 25.8884C45.7737 26.3044 45.489 26.8129 45.2969 27.0256C45.1802 27.1519 45.1944 26.4462 45.2243 25.8807C45.2481 25.3289 45.4253 24.7978 45.7324 24.3567C46.0143 23.9592 46.3416 23.7635 46.4427 24.7527Z" fill="#C57D4C"/>
<path d="M30.9821 21.1439C30.9821 21.1439 33.6537 18.5614 35.3717 20.4197V20.7048C35.3717 20.7048 31.9357 20.7233 30.9821 21.1439Z" fill="black"/>
<path d="M39.3799 20.1023V20.6493C39.3799 20.6493 43.0067 20.62 43.3882 20.9297C43.7696 21.2395 41.9577 18.7601 39.3799 20.1023Z" fill="black"/>
<path d="M36.4222 27.5402C36.6329 27.5402 36.8036 27.3553 36.8036 27.1273C36.8036 26.8992 36.6329 26.7143 36.4222 26.7143C36.2115 26.7143 36.0407 26.8992 36.0407 27.1273C36.0407 27.3553 36.2115 27.5402 36.4222 27.5402Z" fill="#BC7748"/>
<path d="M38.0448 27.5402C38.2555 27.5402 38.4263 27.3553 38.4263 27.1273C38.4263 26.8992 38.2555 26.7143 38.0448 26.7143C37.8341 26.7143 37.6633 26.8992 37.6633 27.1273C37.6633 27.3553 37.8341 27.5402 38.0448 27.5402Z" fill="#BC7748"/>
<path d="M41.1648 28.3184L40.799 28.9794C40.5366 29.4624 40.1853 29.882 39.7671 30.2122C39.1394 30.6919 38.3974 30.9657 37.6298 31.0009C36.8622 31.0362 36.1015 30.8314 35.4386 30.4109C34.892 30.063 34.436 29.5704 34.1134 28.9794L33.7476 28.3184H41.1648Z" fill="#C1272D"/>
<path d="M39.7671 30.2045C39.1401 30.6853 38.3985 30.9605 37.6309 30.9972C36.8633 31.0338 36.1022 30.8303 35.4386 30.4109C36.0132 29.8102 36.7708 29.4576 37.5689 29.4196C38.3669 29.3816 39.1502 29.6607 39.7714 30.2045H39.7671Z" fill="#FF0000"/>
<path d="M39.9678 28.3184C39.8722 28.5419 39.7193 28.7309 39.5272 28.8628C39.3352 28.9948 39.1121 29.0642 38.8846 29.0626H36.6969C36.4694 29.0642 36.2463 28.9948 36.0543 28.8628C35.8622 28.7309 35.7093 28.5419 35.6137 28.3184H39.9678Z" fill="white"/>
<path d="M36.5175 31.5712C36.7909 31.3926 37.1042 31.2982 37.4235 31.2982C37.7428 31.2982 38.0561 31.3926 38.3295 31.5712H36.5175Z" fill="#A96B4E"/>
<path d="M35.2763 24.7527C32.6047 26.0949 31.5542 24.1364 31.5542 24.1364C31.5542 24.1364 32.3186 22.9036 33.3676 22.5862C34.4166 22.2688 35.181 23.7234 35.3717 24.1364L35.4372 24.631C35.4392 24.6525 35.4358 24.6743 35.4275 24.6939C35.4191 24.7136 35.4061 24.7305 35.3897 24.7429C35.3733 24.7553 35.3542 24.7628 35.3342 24.7645C35.3143 24.7662 35.2943 24.7621 35.2763 24.7527Z" fill="white"/>
<path d="M33.4644 25.1657C34.2026 25.1657 34.801 24.5179 34.801 23.7188C34.801 22.9197 34.2026 22.2719 33.4644 22.2719C32.7263 22.2719 32.1279 22.9197 32.1279 23.7188C32.1279 24.5179 32.7263 25.1657 33.4644 25.1657Z" fill="#754C24"/>
<path d="M33.5597 24.9577C34.0864 24.9577 34.5134 24.4954 34.5134 23.9253C34.5134 23.3551 34.0864 22.8929 33.5597 22.8929C33.033 22.8929 32.6061 23.3551 32.6061 23.9253C32.6061 24.4954 33.033 24.9577 33.5597 24.9577Z" fill="black"/>
<path d="M33.7021 24.0285C33.8868 24.0285 34.0366 23.8664 34.0366 23.6664C34.0366 23.4664 33.8868 23.3043 33.7021 23.3043C33.5174 23.3043 33.3676 23.4664 33.3676 23.6664C33.3676 23.8664 33.5174 24.0285 33.7021 24.0285Z" fill="white"/>
<path d="M34.6088 24.4415C34.8195 24.4415 34.9903 24.2566 34.9903 24.0285C34.9903 23.8004 34.8195 23.6155 34.6088 23.6155C34.3981 23.6155 34.2274 23.8004 34.2274 24.0285C34.2274 24.2566 34.3981 24.4415 34.6088 24.4415Z" fill="white"/>
<path d="M35.3717 24.1317C35.181 23.7188 34.418 22.2719 33.3676 22.5816C32.3171 22.8913 31.5542 24.1317 31.5542 24.1317C31.0774 24.0285 31.2695 23.4091 31.2695 23.4091L31.4603 23.5123L31.651 22.8959L31.8417 23.3089C31.8417 23.3089 32.2246 21.862 33.8458 22.1717C35.4671 22.4814 35.3717 24.1317 35.3717 24.1317Z" fill="black"/>
<path d="M39.2376 24.7004C41.9093 26.044 42.9597 24.084 42.9597 24.084C42.9597 24.084 42.1953 22.8513 41.1463 22.5338C40.0973 22.2164 39.3329 23.671 39.1422 24.084L39.0767 24.5786C39.0747 24.6002 39.0781 24.6219 39.0864 24.6416C39.0948 24.6612 39.1078 24.6781 39.1242 24.6905C39.1406 24.7029 39.1597 24.7104 39.1797 24.7121C39.1996 24.7138 39.2196 24.7098 39.2376 24.7004Z" fill="white"/>
<path d="M41.051 25.1133C41.7891 25.1133 42.3875 24.4655 42.3875 23.6664C42.3875 22.8673 41.7891 22.2195 41.051 22.2195C40.3128 22.2195 39.7144 22.8673 39.7144 23.6664C39.7144 24.4655 40.3128 25.1133 41.051 25.1133Z" fill="#754C24"/>
<path d="M40.9556 24.9053C41.4823 24.9053 41.9093 24.443 41.9093 23.8729C41.9093 23.3027 41.4823 22.8405 40.9556 22.8405C40.4289 22.8405 40.002 23.3027 40.002 23.8729C40.002 24.443 40.4289 24.9053 40.9556 24.9053Z" fill="black"/>
<path d="M40.8118 23.9776C40.9966 23.9776 41.1463 23.8155 41.1463 23.6155C41.1463 23.4155 40.9966 23.2534 40.8118 23.2534C40.6271 23.2534 40.4774 23.4155 40.4774 23.6155C40.4774 23.8155 40.6271 23.9776 40.8118 23.9776Z" fill="white"/>
<path d="M39.9051 24.3891C40.1158 24.3891 40.2866 24.2042 40.2866 23.9761C40.2866 23.748 40.1158 23.5631 39.9051 23.5631C39.6945 23.5631 39.5237 23.748 39.5237 23.9761C39.5237 24.2042 39.6945 24.3891 39.9051 24.3891Z" fill="white"/>
<path d="M39.1394 24.0809C39.3301 23.6679 40.0931 22.221 41.1435 22.5308C42.194 22.8405 42.9569 24.0809 42.9569 24.0809C43.4337 23.9777 43.2416 23.3567 43.2416 23.3567L43.0508 23.4599L42.8587 22.8436L42.6679 23.2565C42.6679 23.2565 42.2865 21.8111 40.6638 22.1209C39.0412 22.4306 39.1394 24.0809 39.1394 24.0809Z" fill="black"/>
<path d="M45.8292 15.646C47.0818 11.8785 44.8044 11.5903 42.9597 11.5734C41.115 11.5564 39.7087 9.98006 39.7087 9.98006C31.493 4.45745 30.3571 12.2437 30.3571 12.2437C26.144 13.2853 28.2463 16.4041 28.2463 16.4041C26.9781 16.9126 27.9516 18.039 27.9516 18.039C27.1104 18.4843 28.3217 20.3288 28.3217 20.3288C27.1275 21.3766 29.2085 24.3906 29.2085 24.3906L29.5501 25.5787L29.8575 24.0809C29.8714 24.0469 29.8787 24.0102 29.8789 23.973C29.8789 23.9484 29.8789 23.9129 29.8789 23.8682C29.8449 22.02 30.0495 20.1757 30.4867 18.3888L30.5123 18.2825C30.7084 17.4384 31.0934 16.6595 31.6333 16.0145C32.1732 15.3696 32.8514 14.8784 33.6081 14.5843C34.6913 19.1469 37.0997 17.3209 37.0997 17.3209L37.0242 18.2979C36.9805 18.8033 37.1136 19.3081 37.3972 19.7124C38.0804 20.6632 38.6654 19.6677 38.6654 19.6677C39.1465 20.0591 41.7968 22.6648 42.0359 22.013C42.2751 21.3612 43.2401 21.2318 43.1191 21.4922C42.9981 21.7526 43.1191 23.0562 43.1191 23.0562L44.6848 24.8806L45.1546 24.799L45.4777 22.8389C45.5641 22.6888 45.6592 22.5447 45.7623 22.4075C46.3644 21.6262 45.8178 20.3272 45.8178 20.3272L46.8384 19.6986C48.5208 18.5567 45.8292 15.646 45.8292 15.646Z" fill="#232C4B"/>
</g>
<g clip-path="url(#clip1_784_1544)">
<path d="M66.0447 32.5261H70.5811V35.6266C70.5811 36.2356 70.3422 36.8196 69.917 37.2503C69.4918 37.681 68.9151 37.9232 68.3136 37.9236C68.0156 37.9236 67.7206 37.8641 67.4453 37.7487C67.17 37.6333 66.9199 37.4641 66.7092 37.2508C66.4985 37.0375 66.3314 36.7843 66.2174 36.5056C66.1034 36.227 66.0447 35.9283 66.0447 35.6266V32.5261Z" fill="#B27042"/>
<path d="M77.3864 27.5195C76.378 27.0553 75.8738 28.9572 75.8738 28.9572C75.8738 28.9572 75.7397 34.9017 68.6782 36.5918C68.6782 36.5918 67.2126 36.8796 66.113 36.004C65.0134 35.1284 60.9799 33.9216 60.8833 29.6536C60.1498 26.591 59.0502 27.6173 59.0502 27.6173C58.133 28.8228 60.0573 30.9581 60.0573 30.9581C60.0573 32.1636 61.1582 32.1636 61.1582 32.1636C61.1799 32.3112 61.2251 32.4543 61.2923 32.5872C61.589 33.2415 62.0255 33.8211 62.5702 34.284C63.3098 34.9012 64.0923 35.4637 64.9115 35.9674C65.4613 36.247 66.9229 37.0819 66.9229 37.0819C67.4593 37.3751 68.3189 37.3072 69.0162 37.1783C69.572 37.073 70.0994 36.8495 70.5636 36.5226C71.3601 35.9647 72.9773 35.0402 72.9773 35.0402C74.9887 33.927 75.269 32.0713 75.269 32.0713C76.3686 32.1636 76.4598 30.8645 76.4598 30.8645L77.1021 30.2156C77.1021 30.2156 78.3894 27.9838 77.3864 27.5195ZM60.5239 30.9541C60.3402 30.7681 60.0653 30.3038 60.0653 29.9332C60.0653 29.5626 59.8843 28.7264 59.8843 29.0047C59.8843 29.283 59.4257 28.9124 59.4257 28.9124C59.5236 28.0245 59.836 28.1997 60.1082 28.558C60.4031 28.9541 60.5732 29.431 60.5963 29.9264C60.6218 30.4341 60.6352 31.0681 60.5239 30.9541ZM76.6529 29.0047C76.6529 28.7264 76.4691 29.5612 76.4691 29.9332C76.4691 30.3052 76.1943 30.7681 76.0119 30.9541C75.8979 31.0681 75.9127 30.4341 75.9408 29.9264C75.9639 29.431 76.134 28.9541 76.4289 28.558C76.6971 28.1997 77.0136 28.0245 77.1115 28.9124C77.1115 28.9124 76.6529 29.2843 76.6529 29.0047Z" fill="#BC7748"/>
<path d="M60.5937 29.9264C60.6218 30.4341 60.6353 31.0681 60.524 30.9541C60.3402 30.7681 60.0654 30.3038 60.0654 29.9332C60.0654 29.5626 59.8843 28.7264 59.8843 29.0047C59.8843 29.283 59.4257 28.9124 59.4257 28.9124C59.5236 28.0245 59.8361 28.1997 60.1083 28.558C60.4022 28.9544 60.5714 29.4313 60.5937 29.9264Z" fill="#C57D4C"/>
<path d="M75.1859 22.3243C75.1859 22.3243 75.9194 28.1698 75.8738 28.9585C75.8738 28.9585 75.7397 34.903 68.6783 36.5931C68.6783 36.5931 67.2448 36.8375 66.1131 36.0053C64.921 35.1284 60.9799 33.9229 60.8834 29.6549C60.8834 29.6549 61.7992 22.6026 62.0741 21.9523C62.349 21.3021 63.9072 18.7988 68.0373 18.6128C72.1674 18.4269 75.1859 22.3243 75.1859 22.3243Z" fill="#C57D4C"/>
<path d="M77.1115 28.9124C77.1115 28.9124 76.6529 29.283 76.6529 29.0047C76.6529 28.7264 76.4692 29.5613 76.4692 29.9332C76.4692 30.3052 76.1943 30.7681 76.0119 30.9541C75.8979 31.0681 75.9127 30.4342 75.9408 29.9264C75.9639 29.431 76.134 28.9541 76.4289 28.5581C76.7011 28.1983 77.0136 28.0246 77.1115 28.9124Z" fill="#C57D4C"/>
<path d="M62.2631 25.6652C62.2631 25.6652 64.8297 23.3452 66.4791 25.0149V25.2701C66.4791 25.2701 63.179 25.2932 62.2631 25.6652Z" fill="black"/>
<path d="M70.3289 24.7366V25.228C70.3289 25.228 73.8154 25.2009 74.1788 25.4792C74.5422 25.7575 72.803 23.5298 70.3289 24.7366Z" fill="black"/>
<path d="M67.4875 31.417C67.6897 31.417 67.8536 31.251 67.8536 31.0464C67.8536 30.8417 67.6897 30.6758 67.4875 30.6758C67.2854 30.6758 67.1215 30.8417 67.1215 31.0464C67.1215 31.251 67.2854 31.417 67.4875 31.417Z" fill="#BC7748"/>
<path d="M69.0456 31.417C69.2478 31.417 69.4117 31.251 69.4117 31.0464C69.4117 30.8417 69.2478 30.6758 69.0456 30.6758C68.8435 30.6758 68.6796 30.8417 68.6796 31.0464C68.6796 31.251 68.8435 31.417 69.0456 31.417Z" fill="#BC7748"/>
<path d="M72.0427 32.1147L71.6913 32.7079C71.4385 33.1394 71.1013 33.5141 70.7004 33.8089C70.0982 34.2406 69.3861 34.4877 68.6489 34.5207C67.9118 34.5537 67.1809 34.3711 66.5434 33.9949C66.0188 33.6815 65.581 33.2388 65.2709 32.7079L64.9209 32.1147H72.0427Z" fill="#C1272D"/>
<path d="M70.7004 33.8089C70.0983 34.2406 69.3861 34.4877 68.6489 34.5207C67.9118 34.5537 67.1809 34.3711 66.5435 33.9949C67.0949 33.4563 67.8217 33.1401 68.5872 33.1059C69.3527 33.0716 70.1042 33.3216 70.7004 33.8089Z" fill="#FF0000"/>
<path d="M70.8922 32.1147C70.8007 32.3154 70.654 32.4851 70.4697 32.6036C70.2854 32.722 70.0713 32.7842 69.853 32.7826H67.7517C67.5332 32.7843 67.3189 32.7222 67.1343 32.6037C66.9498 32.4853 66.8028 32.3155 66.7111 32.1147H70.8922Z" fill="white"/>
<path d="M67.5787 35.0361C67.8417 34.8756 68.1431 34.7907 68.4503 34.7907C68.7575 34.7907 69.0588 34.8756 69.3219 35.0361H67.5787Z" fill="#A96B4E"/>
<path d="M66.3879 28.9123C63.8213 30.1178 62.8129 28.3558 62.8129 28.3558C62.8129 28.3558 63.5464 27.2412 64.5562 26.9629C65.5659 26.6847 66.2994 27.9838 66.4804 28.3558L66.5434 28.7997C66.5464 28.8195 66.5439 28.8398 66.5362 28.8582C66.5285 28.8767 66.5159 28.8926 66.4998 28.9043C66.4837 28.916 66.4647 28.9229 66.445 28.9243C66.4252 28.9257 66.4055 28.9216 66.3879 28.9123Z" fill="white"/>
<path d="M64.6461 29.2843C65.3548 29.2843 65.9294 28.7027 65.9294 27.9852C65.9294 27.2677 65.3548 26.686 64.6461 26.686C63.9373 26.686 63.3628 27.2677 63.3628 27.9852C63.3628 28.7027 63.9373 29.2843 64.6461 29.2843Z" fill="#754C24"/>
<path d="M64.7386 29.0984C65.2451 29.0984 65.6558 28.6826 65.6558 28.1698C65.6558 27.657 65.2451 27.2413 64.7386 27.2413C64.232 27.2413 63.8214 27.657 63.8214 28.1698C63.8214 28.6826 64.232 29.0984 64.7386 29.0984Z" fill="black"/>
<path d="M64.8753 28.2621C65.0523 28.2621 65.1958 28.1169 65.1958 27.9377C65.1958 27.7585 65.0523 27.6132 64.8753 27.6132C64.6983 27.6132 64.5548 27.7585 64.5548 27.9377C64.5548 28.1169 64.6983 28.2621 64.8753 28.2621Z" fill="white"/>
<path d="M65.7457 28.6341C65.9478 28.6341 66.1117 28.4682 66.1117 28.2635C66.1117 28.0588 65.9478 27.8929 65.7457 27.8929C65.5435 27.8929 65.3796 28.0588 65.3796 28.2635C65.3796 28.4682 65.5435 28.6341 65.7457 28.6341Z" fill="white"/>
<path d="M66.4791 28.3557C66.2954 27.9838 65.5632 26.6846 64.5548 26.9629C63.5464 27.2412 62.8116 28.3557 62.8116 28.3557L63.0798 27.6132C63.0798 27.6132 63.4459 26.314 65.0054 26.5923C66.5649 26.8706 66.4791 28.3557 66.4791 28.3557Z" fill="black"/>
<path d="M70.1908 28.8662C72.7574 30.0717 73.7658 28.3096 73.7658 28.3096C73.7658 28.3096 73.0323 27.1951 72.0226 26.9168C71.0128 26.6385 70.2793 27.9377 70.0983 28.3096L70.0353 28.7535C70.0323 28.7733 70.0348 28.7936 70.0425 28.8121C70.0502 28.8306 70.0628 28.8465 70.0789 28.8582C70.095 28.8698 70.114 28.8768 70.1337 28.8782C70.1535 28.8796 70.1733 28.8754 70.1908 28.8662Z" fill="white"/>
<path d="M71.9328 29.2367C72.6415 29.2367 73.2161 28.6551 73.2161 27.9376C73.2161 27.2201 72.6415 26.6385 71.9328 26.6385C71.224 26.6385 70.6495 27.2201 70.6495 27.9376C70.6495 28.6551 71.224 29.2367 71.9328 29.2367Z" fill="#754C24"/>
<path d="M71.8415 29.0521C72.3481 29.0521 72.7587 28.6364 72.7587 28.1236C72.7587 27.6108 72.3481 27.195 71.8415 27.195C71.335 27.195 70.9243 27.6108 70.9243 28.1236C70.9243 28.6364 71.335 29.0521 71.8415 29.0521Z" fill="black"/>
<path d="M71.7034 28.216C71.8804 28.216 72.0239 28.0707 72.0239 27.8915C72.0239 27.7123 71.8804 27.5671 71.7034 27.5671C71.5264 27.5671 71.3829 27.7123 71.3829 27.8915C71.3829 28.0707 71.5264 28.216 71.7034 28.216Z" fill="white"/>
<path d="M70.8331 28.5879C71.0353 28.5879 71.1992 28.4219 71.1992 28.2173C71.1992 28.0126 71.0353 27.8466 70.8331 27.8466C70.6309 27.8466 70.467 28.0126 70.467 28.2173C70.467 28.4219 70.6309 28.5879 70.8331 28.5879Z" fill="white"/>
<path d="M73.7658 28.3083C73.7658 28.3083 73.0323 27.1951 72.0225 26.9168C71.0128 26.6385 70.2793 27.9377 70.0983 28.3083C70.0983 28.3083 70.0057 26.8245 71.5653 26.5435C73.1248 26.2625 73.4895 27.5657 73.4895 27.5657L73.7658 28.3083Z" fill="black"/>
<path d="M66.5957 15.5991L67.6524 15.4485C67.6524 15.4485 73.9294 14.243 74.687 17.7562C74.687 17.7562 76.6354 17.2132 76.3109 21.0441L76.2144 27.4313C76.2067 27.9152 76.0917 28.3912 75.8778 28.8241L74.7956 26.7416C74.7956 26.7416 73.7135 25.5362 73.7135 23.8909L73.0645 20.4971C73.0645 20.4971 66.5703 21.374 63.647 20.3871C63.647 20.3871 63.5384 23.7809 61.9158 25.866L60.941 29.4743C60.7239 28.8887 60.5999 28.272 60.5735 27.6471C60.4931 25.7656 60.3429 21.6808 60.5078 20.9274L61.1582 19.1735L61.2655 17.5309C61.2655 17.5309 63.3708 14.543 66.5957 15.5991Z" fill="black" stroke="black" stroke-miterlimit="10"/>
<path d="M62.0915 16.6092C62.0915 16.6092 62.4482 15.3874 62.9216 14.6109C63.3949 13.8344 64.3792 12.3031 64.5522 11.9488C64.7251 11.5945 65.5002 10.389 66.0004 9.94376C66.5006 9.49849 66.5502 9.29351 66.5502 9.29351L68.9639 9.10345C68.9639 9.10345 68.815 9.25007 69.224 9.35324C69.224 9.35324 70.2029 9.9519 70.3518 10.142C70.5006 10.332 71.4688 10.7976 71.8268 11.1072C72.1622 11.3964 72.4759 11.7104 72.7655 12.0466C72.9143 12.238 74.3666 13.7448 74.3666 13.7448L75.8175 17.0028L66.7232 21.1664L61.8019 17.8391L62.0915 16.6092Z" fill="#A10036"/>
<path d="M66.9578 9.26094C66.9578 9.26094 66.4711 13.5521 66.5261 14.6639C66.581 15.7757 66.7393 21.3293 66.7393 21.3293L67.3092 21.2967C67.3092 21.2967 67.1389 16.0689 67.1751 15.1879C67.2113 14.3068 67.4084 9.22565 67.4084 9.22565L66.9578 9.26094Z" fill="#4F3D79"/>
<path d="M64.5521 11.9488C64.5521 11.9488 63.6604 17.5581 63.639 19.0799L62.8143 18.8396L63.2554 14.072L64.5521 11.9488Z" fill="#4F3D79"/>
<path d="M70.565 10.3116L71.6042 10.9429C71.6042 10.9429 72.386 15.7906 72.437 16.4626L71.4527 16.6757C71.4527 16.6757 71.0585 10.6605 70.565 10.3116Z" fill="#4F3D79"/>
<path d="M55.3331 24.8317L55.832 24.3864C55.832 24.3864 55.8172 24.1855 56.194 23.8855C56.5708 23.5855 56.7545 23.3683 56.8645 23.09C56.9745 22.8117 57.2842 21.5709 57.5752 21.0035C57.7684 20.6184 57.9381 20.2217 58.0834 19.8157L58.4254 19.0459C58.4276 18.6232 58.5592 18.2115 58.8022 17.8676C58.8854 17.4971 59.0972 17.1691 59.3989 16.9431C59.9031 16.5658 60.8458 15.8164 60.8458 15.8164C61.2783 15.9072 61.6705 16.1366 61.9641 16.4707C62.475 17.0436 65.4761 19.646 65.7617 19.8917C66.0473 20.1374 66.5435 20.5053 66.88 20.5474C67.2166 20.5894 67.4513 20.1645 67.6846 19.8075C67.9179 19.4505 71.3293 16.0065 71.3293 16.0065C71.3293 16.0065 72.7681 14.7453 72.9519 14.5281C73.1356 14.3109 73.3287 14.2281 73.9763 13.9743C74.624 13.7204 74.8077 13.5046 74.8077 13.5046C74.8077 13.5046 74.7152 13.1733 75.9663 13.8181C77.2174 14.463 76.854 14.0896 77.4615 15.0508C78.0689 16.0119 80.1326 18.4242 80.1326 18.4242C80.3708 18.7043 80.6604 18.9348 80.9855 19.103C81.5406 19.3975 82.2352 19.7478 82.2352 19.7478L82.3372 20.2134C82.3372 20.2134 81.5111 20.7564 80.8541 20.8691C80.1408 21.0032 79.4066 20.9688 78.7085 20.7686C78.0247 20.5514 77.6921 20.5772 77.1825 20.0098C77.1825 20.0098 76.9586 21.446 77.0203 22.251C77.082 23.056 77.0324 25.0204 77.0324 25.0204C77.0324 25.0204 75.9596 24.024 73.8892 23.1728C71.8188 22.3216 69.3527 21.4365 67.5411 21.3076C65.7295 21.1786 62.6923 22.4967 61.173 23.5624C61.173 23.5624 61.1073 24.4448 58.884 25.0258L56.9248 25.5837L55.3331 24.8317Z" fill="#A10036"/>
<path d="M55.7059 25.0081C55.7059 25.0081 56.5413 24.0579 56.6634 23.9221C56.7631 23.7705 56.8403 23.605 56.8927 23.4307C56.8927 23.4307 57.2547 23.8081 57.9909 24.6959L58.3717 25.1765L56.9249 25.5837L55.7059 25.0081Z" fill="#96002A"/>
<path d="M55.3331 24.8316L55.7059 25.0081L56.6634 23.9221C56.7549 23.7659 56.8316 23.6014 56.8927 23.4307C56.8927 23.3641 58.0392 20.9776 58.1411 20.5636C58.243 20.1495 58.6198 18.9671 58.7981 18.6834C58.7981 18.6834 59.0006 17.8567 59.3064 17.4942C59.6121 17.1318 60.8109 16.2277 60.8109 16.2277C60.8109 16.2277 62.2859 17.1929 62.9444 17.9517C62.9444 17.9517 66.0178 20.6138 66.3651 20.7903C66.4706 20.8363 66.5842 20.8604 66.699 20.8609C66.9109 20.8673 67.1208 20.8172 67.3075 20.7154C67.4942 20.6136 67.6511 20.4639 67.7624 20.2812C67.8731 20.0964 68.0045 19.9251 68.1539 19.7708C68.5267 19.4043 70.8157 17.0558 71.3105 16.5508C71.8053 16.0458 72.9827 14.8661 73.3702 14.7005C73.7578 14.5349 74.262 14.1575 74.5275 14.1371C74.5928 14.1319 74.6566 14.1139 74.7152 14.0842C74.8295 14.0216 74.9563 13.986 75.0862 13.9802C75.216 13.9743 75.3454 13.9982 75.4648 14.0502C75.5113 14.07 75.5562 14.0936 75.5989 14.1208C75.8805 14.3014 76.5536 14.3828 76.5536 14.3828C76.5536 14.3828 77.503 15.4566 77.8047 15.9059C78.1065 16.3553 79.2959 18.0169 79.7304 18.4554C80.1648 18.8938 80.1796 19.0961 80.669 19.3948C81.1585 19.6934 82.0569 20.0966 82.0569 20.0966C82.0569 20.0966 82.1119 20.3464 82.2218 20.2785L82.3318 20.2106L82.2299 19.745C82.2299 19.745 80.6422 19.0595 80.1326 18.4241C79.6231 17.7888 77.672 15.3507 77.672 15.3507C77.672 15.3507 77.1356 14.4249 76.9345 14.2959L75.9167 13.7909L75.0974 13.438C75.0448 13.4141 74.9873 13.4034 74.9298 13.4068C74.8895 13.4068 74.8506 13.4176 74.8412 13.4448C74.6979 13.6326 74.5036 13.7742 74.2821 13.852C73.9014 13.9802 73.533 14.1429 73.1812 14.338C73.1503 14.3815 72.7521 14.7453 72.7521 14.7453L71.2971 16.0838C71.1201 16.2467 70.9471 16.415 70.7809 16.5874L67.8308 19.6418C67.6963 19.7998 67.5744 19.9682 67.466 20.1455C67.3319 20.3817 67.0356 20.7577 66.5059 20.417C65.9762 20.0762 63.9393 18.2965 63.9393 18.2965L62.0915 16.6091C62.0915 16.6091 61.5256 16.0268 61.1864 15.9236C60.8471 15.8204 60.823 15.7675 60.5548 16.0526C60.5548 16.0526 59.2353 17.0232 59.1025 17.239C58.9698 17.4549 58.8491 17.5988 58.8035 17.8716C58.7579 18.1445 58.4307 18.2395 58.4267 19.05L57.2882 21.7338C57.2882 21.7338 56.9128 23.1252 56.7706 23.2854C56.5934 23.4997 56.4007 23.7002 56.194 23.8854C56.0063 24.0361 55.8226 24.2533 55.832 24.3864L55.3331 24.8316Z" fill="#C8205D"/>
<path d="M59.2339 17.592L60.8753 21.4242L60.8109 16.2277C60.8109 16.2277 59.2688 17.3381 59.2339 17.592Z" fill="#6B0125"/>
<path d="M75.1979 13.981L76.9331 18.5409C77.0741 18.7538 77.1692 18.9944 77.2121 19.247C77.2551 19.4997 77.245 19.7586 77.1825 20.007C77.3326 20.1571 77.4955 20.2934 77.6693 20.4143C77.6693 20.4143 79.9637 19.3011 80.1889 18.9862C80.1889 18.9862 77.7605 16.1259 77.5459 15.5598L76.551 14.3801C76.551 14.3801 75.7611 14.2824 75.4675 14.0475L75.1979 13.981Z" fill="#7B0024"/>
<path d="M77.1826 20.007C77.1826 20.007 76.1568 19.6826 76.8245 21.8587C76.8245 21.8587 76.9841 23.9995 75.9878 24.2506L77.0324 25.0176L77.0083 21.818C77.0083 21.818 77.1236 20.1469 77.1826 20.007Z" fill="#900028"/>
</g>
</g>
<defs>
<filter id="filter0_dd_784_1544" x="0.33313" y="0" width="101" height="56" filterUnits="userSpaceOnUse" color-interpolation-filters="sRGB">
<feFlood flood-opacity="0" result="BackgroundImageFix"/>
<feColorMatrix in="SourceAlpha" type="matrix" values="0 0 0 0 0 0 0 0 0 0 0 0 0 0 0 0 0 0 127 0" result="hardAlpha"/>
<feMorphology radius="2" operator="erode" in="SourceAlpha" result="effect1_dropShadow_784_1544"/>
<feOffset dy="2"/>
<feGaussianBlur stdDeviation="2"/>
<feColorMatrix type="matrix" values="0 0 0 0 0.0627451 0 0 0 0 0.0941176 0 0 0 0 0.156863 0 0 0 0.06 0"/>
<feBlend mode="normal" in2="BackgroundImageFix" result="effect1_dropShadow_784_1544"/>
<feColorMatrix in="SourceAlpha" type="matrix" values="0 0 0 0 0 0 0 0 0 0 0 0 0 0 0 0 0 0 127 0" result="hardAlpha"/>
<feMorphology radius="2" operator="erode" in="SourceAlpha" result="effect2_dropShadow_784_1544"/>
<feOffset dy="4"/>
<feGaussianBlur stdDeviation="4"/>
<feColorMatrix type="matrix" values="0 0 0 0 0.0627451 0 0 0 0 0.0941176 0 0 0 0 0.156863 0 0 0 0.1 0"/>
<feBlend mode="normal" in2="effect1_dropShadow_784_1544" result="effect2_dropShadow_784_1544"/>
<feBlend mode="normal" in="SourceGraphic" in2="effect2_dropShadow_784_1544" result="shape"/>
</filter>
<clipPath id="clip0_784_1544">
<rect width="36" height="32" fill="white" transform="translate(19.3331 8)"/>
</clipPath>
<clipPath id="clip1_784_1544">
<rect width="27" height="36" fill="white" transform="translate(55.3331 6)"/>
</clipPath>
</defs>
</svg>
