<svg width="70" height="50" viewBox="0 0 70 50" fill="none" xmlns="http://www.w3.org/2000/svg">
<g clip-path="url(#clip0_784_1489)">
<path d="M1.86427 6.49854L68.5962 6.76963V46.9822L37.7999 48.3438C37.7999 48.3438 36.0203 51.6222 31.9792 48.9539L10.864 47.7876L0.0941162 46.8514L2.18698 15.1981L1.86427 6.49854Z" fill="#902221"/>
<path d="M65.4779 8.88177L65.4984 10.939L65.5104 12.9962L65.5207 17.1098L65.5104 21.2251L65.4984 23.2814L65.4779 25.3386L65.4565 23.2814L65.4445 21.2251L65.4351 17.1098L65.4445 12.9962L65.4565 10.939L65.4779 8.88177Z" fill="black"/>
<path d="M66.9604 15.7752C66.9604 15.7752 65.9144 10.3506 64.2546 9.78399L66.2508 9.60965C66.2508 9.60965 68.1031 13.9769 67.3687 15.6L66.9604 15.7752Z" fill="#020202"/>
<path d="M68.5919 6.76964L69.3067 15.6009H67.3688C67.3688 15.6009 67.5126 11.6712 66.1456 10.613C64.7786 9.55473 60.4105 8.88177 60.4105 8.88177V5.92496L68.5919 6.76964Z" fill="#020202"/>
<path d="M67.3679 15.6009L66.9604 15.7787L68.3788 16.2233L69.3067 15.6009H67.3679Z" fill="#020202"/>
<path d="M2.24174 6.39133H6.81523V7.87322C6.81523 7.87322 5.07931 8.88876 4.0975 10.4439C3.1157 11.999 2.78786 13.2229 2.67829 14.445L2.73308 14.8338H1.23083L1.86426 6.49855L6.8195 6.39133" fill="#020202"/>
<path d="M1.23083 14.8338C1.23083 14.8338 1.31644 15.7229 2.18696 15.7229V15.1999L3.27833 15.1694L3.80048 15.4013C3.80048 15.4013 3.7748 12.6781 4.67272 11.7009L5.29758 9.03259C5.29758 9.03259 2.62351 11.279 2.72965 14.8355L1.23083 14.8338Z" fill="#020202"/>
<path d="M68.0518 39.2301C68.0518 39.2301 68.0852 46.039 59.9919 46.0242C59.9919 46.0242 60.6562 46.6343 60.289 47.5191H70V39.2301H68.0518Z" fill="#020202"/>
<path d="M9.81202 5.05327L7.69862 4.66449L7.35623 18.902L5.29761 41.6752C5.29761 41.6752 6.29824 41.5593 5.58008 42.6733L18.0671 43.2338C18.0671 43.2338 18.6508 42.0666 19.3681 43.2338C19.3681 43.2338 31.814 44.2877 32.9893 44.2328C34.1645 44.1779 9.81202 5.05327 9.81202 5.05327Z" fill="#DDB28F"/>
<path d="M9.49958 6.05397L8.29265 5.60941V10.9198C8.29265 10.9198 9.28301 10.9294 9.06303 11.8264C8.84304 12.7234 7.95026 12.6667 7.95026 12.6667V14.5435C7.95026 14.5435 9.17088 14.3892 8.62477 15.2234C8.07866 16.0576 7.42041 16.2764 7.42041 16.2764L12.4869 33.5152L14.8477 6.60925L9.49958 6.05397Z" fill="#86705B"/>
<path d="M11.6823 3.60886H9.06387V10.6932C9.06387 10.6932 9.82911 11.2633 9.06387 11.8264L8.62647 13.7224C8.62647 13.7224 9.49956 14.3892 8.62647 15.2234L7.13622 36.1731L7.86208 36.8399L7.13622 37.4928L6.22974 41.3972C6.22974 41.3972 12.451 41.8417 12.8875 41.9533C13.3241 42.0649 13.651 40.2858 13.651 40.2858L14.9992 41.9577C14.9992 41.9577 31.273 43.1737 32.9935 44.2302L11.6823 3.60886Z" fill="#D9B48A"/>
<path d="M10.4814 3.94185L9.17175 21.7246H12.9928V3.60886L10.4814 3.94185Z" fill="#86705B"/>
<path d="M62.1174 5.96245L63.4133 5.60941L63.1565 19.5009L62.7662 20.2061L63.4142 20.6585L64.6879 42.6751C64.6879 42.6751 63.6427 43.0804 64.2924 43.8501C64.9421 44.6199 51.6411 43.8501 51.6411 43.8501C51.6411 43.8501 51.4134 43.3027 50.6995 43.8501C49.9856 44.3976 35.0352 45.6206 35.0352 45.6206L46.3991 5.60941L62.1174 5.96245Z" fill="#C9A990"/>
<path d="M60.794 8.27856H62.5916V13.2612C62.5916 13.2612 61.4531 13.7232 62.108 14.3901C62.7628 15.0569 62.5916 19.3762 62.5916 19.3762L63.5272 30.84L63.1522 32.3602L63.5195 42.0231H61.6637C61.6637 42.0231 61.4454 41.0764 60.7906 41.5706C60.1358 42.0649 60.063 42.6733 60.063 42.6733L53.3693 42.9532C53.3693 42.9532 51.0779 42.7309 50.423 43.3977C49.7682 44.0646 46.9418 44.2302 46.9418 44.2302L60.794 8.27856Z" fill="#87715A"/>
<path d="M59.0477 2.03717H62.1173V3.69776L61.0122 3.94184L61.667 4.49799L62.1173 5.05326V13.059C62.1173 13.059 61.1218 13.1671 61.1218 13.9446C61.1218 14.7222 61.8853 14.7231 61.8853 14.7231L62.6497 30.9498H61.8682L62.4297 32.2835L62.8072 33.191L63.1496 40.8201L61.7158 41.0267C61.7158 41.0267 61.661 39.3705 60.7879 39.9955C59.9148 40.6205 60.2333 41.2865 60.2333 41.2865L47.4732 43.0647L47.2849 42.6202L46.8407 43.3977L35.0282 45.6206L41.2588 4.60869L59.0477 2.03717Z" fill="#DCB18E"/>
<path d="M58.2817 2.80167H59.9936V3.59753C59.9936 3.59753 59.5194 16.1701 59.9936 16.2799C60.4678 16.3898 59.7043 16.7838 59.7043 16.7838L60.7957 25.289C60.7923 25.4166 60.7477 25.5395 60.6688 25.6386C60.5899 25.7377 60.481 25.8076 60.3591 25.8373C59.9226 25.9489 60.7957 26.5974 60.7957 26.5974L61.6688 39.7305C61.6688 39.7305 60.0296 39.0845 59.9757 40.4078C59.9217 41.731 47.8859 42.6742 47.8859 42.6742L58.2817 2.80167Z" fill="#86705B"/>
<path d="M11.4641 1.386C11.4641 1.386 29.1246 2.91236 34.7005 8.42849L35.1473 9.27666C35.1473 9.27666 35.0377 5.72011 45.2966 2.94199C45.2966 2.94199 47.1523 2.38585 47.3706 2.60813C47.5889 2.83042 47.3706 2.16356 48.2437 2.16356C49.1168 2.16356 57.9565 -0.392269 59.0478 0.0522997V3.39702L58.2843 3.72042L59.0478 4.15628C59.0478 4.15628 58.393 14.5077 59.0478 16.2851H57.8178L58.6113 16.8396C58.6113 16.8396 59.4844 24.2865 59.4844 24.8426C59.4844 24.8426 58.5026 25.7379 59.4844 26.4013L60.794 39.1795L57.5199 39.6241C57.5199 39.6241 56.8651 38.9573 56.4286 40.291L47.5889 41.8391C47.5889 41.8391 47.4648 40.95 46.5994 41.8391C46.5994 41.8391 46.388 40.3947 45.2966 41.1723C45.2966 41.1723 44.86 41.5061 44.9696 42.3926L35.0403 45.6179C35.0403 45.6179 29.9113 41.5061 24.9997 41.7284L24.7814 40.95L24.1266 41.7284C24.1266 41.7284 12.5555 39.2859 12.0103 39.2859V38.5075L11.4641 39.129C11.4641 39.129 9.17269 39.1743 8.51701 38.619C7.86134 38.0638 8.84486 37.3987 8.84486 37.3987C8.84486 37.3987 7.86219 36.0649 8.84486 35.3981C8.84486 35.3981 9.49968 35.0651 8.73529 34.3983L9.06313 26.7273L10.2615 26.8389L9.28141 26.0613C9.28141 26.0613 11.3657 7.73026 10.8684 6.39132H11.7081C11.7081 6.39132 10.9189 5.94239 10.9189 5.72011C10.9189 5.49783 11.7937 5.6094 11.7937 5.6094C11.3974 5.07697 11.1009 4.47474 10.9189 3.83287L11.6824 3.61059L11.1372 3.05444L11.4641 1.386Z" fill="#F2E2D2"/>
<path d="M12.3371 3.27497C12.3371 3.27497 14.3016 1.38599 19.8697 2.94198L16.1034 2.80164C16.1034 2.80164 29.235 3.82502 34.7012 9.38474L32.8549 37.7299L31.4365 31.1721C31.4365 31.1721 31.327 39.1743 31.327 40.508C31.327 41.8417 32.9893 44.2302 32.9893 44.2302C32.9893 44.2302 29.7991 41.6194 24.997 41.731L24.7788 40.9526L24.1239 41.731C24.1239 41.731 14.6294 37.8406 13.8651 36.8408C13.1007 35.8409 11.6823 30.507 10.8092 29.8384C9.93613 29.1698 9.61086 27.5048 9.93613 27.171C10.2614 26.8371 10.9188 27.171 10.9188 27.171L10.1544 25.9506C10.1544 25.9506 10.591 22.394 11.1371 21.3933C11.1371 21.3933 10.264 15.1694 11.3553 13.5018C12.4467 11.8342 12.3371 3.27497 12.3371 3.27497Z" fill="#E4C9AC"/>
<path d="M13.3198 10.1658C13.3198 10.1658 15.4084 30.1923 21.8941 40.7931L24.1197 41.7275L24.7745 40.9491L24.9928 41.7275C24.9928 41.7275 28.0991 40.5028 32.985 44.2267C32.985 44.2267 31.1635 41.8269 31.3518 40.8323C31.5401 39.8377 31.4323 31.1686 31.4323 31.1686L32.8506 37.7264L34.6961 9.38126C34.6961 9.38126 34.0516 5.9912 16.0983 2.79816H14.525L20.6316 34.0583L13.3198 10.1658Z" fill="#DAB28E"/>
<path d="M35.1464 9.27667L35.0377 45.6206L35.9108 26.7264L35.4743 28.6102V17.2362L35.1464 9.27667Z" fill="#190500"/>
<path d="M39.2936 29.7268L41.9129 42.397L40.8215 42.6193L39.2936 29.7268Z" stroke="black" stroke-miterlimit="10"/>
<path d="M35.6377 8.88177C35.6377 8.88177 38.4214 5.49782 40.4945 5.05325C40.4945 5.05325 46.0584 25.7266 47.0428 26.5041L43.2234 10.1658L55.0008 36.173L53.1724 29.7268L56.3198 35.9508C56.3198 35.9508 48.462 40.7294 48.0254 41.2856C48.0254 41.2856 46.0567 40.2849 44.9696 40.9517C43.8825 41.6186 35.4742 44.6643 35.4742 44.6643L35.618 13.2595L35.6377 8.88177Z" fill="#DAB28E"/>
<path d="M35.618 13.2603C35.618 13.2603 37.0022 18.2796 38.2031 30.7275C39.404 43.1754 40.1265 42.941 40.1265 42.941L35.4751 44.6652L35.618 13.2603Z" fill="#F2E2D2"/>
<path d="M46.3323 2.87401C48.3211 2.12068 50.4736 1.93235 52.5595 2.3292C54.2714 2.66567 56.0382 3.42231 56.9044 5.05065C58.8843 8.77457 58.2817 15.8249 58.2817 15.8249L56.9036 17.1856L58.8055 23.5159L58.2808 30.1705L56.0202 35.3606L53.1715 29.7277L54.7748 35.6771L43.2191 10.1658L47.0384 26.5041L40.4945 5.05327L46.3323 2.87401Z" fill="#E3C8AB"/>
<path d="M66.1447 45.6206L64.687 44.2302L35.4742 46.0242L37.7999 46.4016L66.1447 45.6206V9.27666L64.687 8.88177V44.2302L66.1447 45.6206Z" fill="#F2E2D2"/>
<path d="M65.4779 37.8711C65.4959 38.4011 65.5036 38.9311 65.5104 39.4611C65.5173 39.9911 65.5173 40.5211 65.5207 41.0511C65.5241 41.5811 65.5207 42.1111 65.5113 42.6402L65.4993 43.4352C65.4916 43.6967 65.4873 43.9652 65.4779 44.2302C65.4685 43.9687 65.4642 43.7002 65.4574 43.4352L65.4454 42.6402C65.4385 42.1111 65.4385 41.5811 65.4351 41.0511C65.4317 40.5211 65.4351 39.9911 65.4454 39.4611C65.4557 38.9311 65.4634 38.4011 65.4779 37.8711Z" fill="black"/>
<path d="M60.7939 44.6652C61.0216 44.6477 61.2493 44.639 61.4787 44.6321C61.7081 44.6251 61.9341 44.6233 62.1635 44.6216C62.3929 44.6198 62.618 44.6216 62.8483 44.6321L63.1907 44.6443C63.3045 44.6512 63.4184 44.6556 63.5331 44.6652C63.4192 44.6756 63.3054 44.68 63.1907 44.687L62.8483 44.6992C62.6206 44.707 62.3938 44.7079 62.1635 44.7088C61.9332 44.7096 61.709 44.7088 61.4787 44.6992C61.2485 44.6896 61.0216 44.6835 60.7939 44.6652Z" fill="black"/>
<path d="M64.687 8.88178L63.4133 5.60941L63.1565 19.5009L62.7662 20.2061L63.4142 20.6585L64.6879 42.6751C64.6879 42.6751 63.2327 42.8398 64.6879 44.2302C66.143 45.6206 35.4743 46.0233 35.4743 46.0233L35.0377 45.6197L50.7021 43.8493C50.7021 43.8493 51.4725 43.5058 51.986 44.2293H64.687V8.88178Z" fill="#87715A"/>
<path d="M7.64815 6.76965L5.29764 7.99875L4.76437 8.2777L3.80054 44.232L5.72477 43.0046V41.7694L5.29764 41.6752L7.64815 6.76965Z" fill="#F2E2D2"/>
<path d="M5.72474 8.88177L5.69136 10.5615L5.65027 12.2422L5.55354 15.6017L5.43713 18.9613L5.37208 20.6402L5.29761 22.3191L5.33013 20.6384L5.37122 18.9587L5.46795 15.5991L5.58522 12.2396L5.65027 10.5607L5.72474 8.88177Z" fill="black"/>
<path d="M6.22975 7.51407C6.20579 8.59062 6.1724 9.66805 6.13731 10.7446L6.02175 13.9751L5.88736 17.2004L5.81289 18.8148L5.72729 20.4283L5.76924 18.8131L5.81974 17.1978L5.9353 13.9682L6.06969 10.7385C6.11591 9.66543 6.16641 8.58975 6.22975 7.51407Z" fill="black"/>
<path d="M5.97297 25.3395C5.93445 25.8826 5.88737 26.4239 5.83687 26.9661C5.78637 27.5083 5.72987 28.0488 5.67766 28.5901C5.62545 29.1314 5.56125 29.6719 5.49791 30.2124L5.40118 31.0222C5.36609 31.2924 5.33356 31.5626 5.2959 31.832C5.31473 31.56 5.3387 31.2889 5.3601 31.0178L5.43285 30.2054C5.4825 29.6632 5.53899 29.1219 5.59206 28.5805C5.64513 28.0392 5.70762 27.4987 5.77182 26.9592C5.83602 26.4196 5.90107 25.8783 5.97297 25.3395Z" fill="black"/>
<path d="M22.2562 43.9312C22.2562 43.9312 30.6174 44.8997 31.8183 45.2335C33.0192 45.5674 20.4852 44.6539 19.7944 44.5824C19.1036 44.5109 31.4357 45.8446 31.4357 45.8446L19.3262 44.9537L31.2242 46.1741C31.2242 46.1741 32.3156 46.1741 32.3156 46.7294C32.3156 47.2847 31.8791 47.6185 31.7695 47.8408C31.6599 48.0631 31.9878 48.9522 31.9878 48.9522L32.3473 49.0638C32.3473 49.0638 32.4243 48.1747 32.6426 48.1747C32.8609 48.1747 33.1887 47.5078 33.1887 47.0632C33.1918 46.7086 33.1404 46.3556 33.0363 46.0172C32.9704 45.8359 33.1887 46.0582 33.5157 45.9475C33.8427 45.8368 33.8435 45.7252 34.2801 45.7252C34.7166 45.7252 34.6148 45.2893 34.6148 45.2893L32.9953 44.2215L22.5378 43.4954L30.3451 44.51L22.2562 43.9312Z" fill="#110000"/>
<path d="M3.80054 44.2328L25.8847 45.6275L19.3262 44.9537L31.4409 45.8429L19.7996 44.5806C19.7996 44.5806 31.3869 45.2318 31.8235 45.2318C32.26 45.2318 22.2562 43.9312 22.2562 43.9312L30.3452 44.5109L22.5379 43.4954L19.3707 43.2338C19.3707 43.2338 18.7519 42.0666 18.1107 43.2338L5.68197 42.6237L5.72734 43.0081L3.80054 44.2328Z" fill="#FDD6AF"/>
<path d="M0.0941162 46.8514L1.25995 48.3438H10.5952C10.5952 48.3438 9.68618 47.8608 9.81116 47.5191L0.0941162 46.8514Z" stroke="black" stroke-miterlimit="10"/>
<path d="M1.25995 48.3438H10.5952C10.5952 48.3438 10.014 48.0823 9.81116 47.5191L0.0941162 46.8514L1.25995 48.3438Z" fill="#020202"/>
<path d="M0.528097 38.6757H1.97213C1.97213 38.6757 0.885895 45.0653 9.55864 45.6206C9.55864 45.6206 9.03222 47.0833 9.81544 47.5191L0.0941162 46.8514L0.528097 38.6757Z" fill="#020202"/>
<path opacity="0.82" d="M10.1759 45.6205C10.1759 45.6205 9.22657 47.01 10.8606 47.7876L10.5953 48.3437C10.5953 48.3437 9.73931 47.8059 9.81121 47.5191C9.81121 47.5191 9.12643 47.1207 9.55442 45.6205H10.1759Z" fill="#F2F0F0"/>
<path d="M70 47.5191L68.5422 48.7325H59.1761L60.2881 47.5191H70Z" fill="#020202"/>
<path opacity="0.82" d="M59.9919 46.0233C59.9919 46.0233 60.2008 47.7405 58.8064 48.125L59.177 48.7352L60.2898 47.5217C60.2898 47.5217 60.7178 46.8723 59.9919 46.0233Z" fill="#F2F0F0"/>
<path d="M37.1116 47.6795L37.05 46.1776L35.4742 45.9483L34.6088 45.2963C34.6088 45.2963 34.7106 45.5857 34.2741 45.6859C33.8375 45.7862 33.3154 45.9117 33.0303 45.9475C33.0303 45.9475 33.6193 46.9813 32.6366 47.8783C32.6366 47.8783 33.8178 48.8267 34.7004 48.702C35.5829 48.5774 35.802 48.7787 37.1116 47.6795Z" fill="#7A1E1E"/>
</g>
<defs>
<clipPath id="clip0_784_1489">
<rect width="70" height="50" fill="white"/>
</clipPath>
</defs>
</svg>
