<svg width="86" height="59" viewBox="0 0 86 59" fill="none" xmlns="http://www.w3.org/2000/svg">
<g clip-path="url(#clip0_784_1616)">
<path d="M0.21167 37.5623L0.391277 39.1914C0.391277 39.1914 17.8786 35.7674 29.0948 43.8953C22.002 33.6878 0.21167 37.5623 0.21167 37.5623Z" fill="#D8BFAB"/>
<path d="M29.0948 44.1008C29.0513 44.1014 29.0086 44.0894 28.9718 44.0662C22.8409 39.6098 14.7885 38.6888 9.10537 38.6888C6.19902 38.6786 3.29703 38.9163 0.430576 39.3994C0.402393 39.4059 0.373154 39.4064 0.344759 39.4009C0.316365 39.3953 0.289452 39.3838 0.265745 39.3672C0.240013 39.3494 0.218351 39.3263 0.202227 39.2994C0.186103 39.2725 0.175888 39.2424 0.172255 39.2112L0.00496044 37.5896C-0.00268669 37.5348 0.0101948 37.4791 0.0411192 37.4333C0.0720436 37.3875 0.118796 37.355 0.172255 37.342C3.2498 36.8506 6.36083 36.6023 9.47687 36.5993C16.2401 36.5993 25.1658 37.8371 29.2621 43.7394C29.294 43.7797 29.3091 43.831 29.304 43.8823C29.299 43.9336 29.2742 43.9809 29.235 44.0142C29.2205 44.0391 29.2001 44.06 29.1757 44.0752C29.1512 44.0903 29.1234 44.0991 29.0948 44.1008ZM9.10537 38.2605C14.5179 38.2605 22.029 39.0924 28.0787 42.9397C23.7881 38.1268 15.7062 37.0548 9.4867 37.0548C6.46287 37.0545 3.44348 37.2879 0.455173 37.753L0.580647 38.9438C3.39912 38.4839 6.25009 38.2554 9.10537 38.2605Z" fill="black"/>
<path d="M62.9033 54.1747C53.1312 47.8591 36.1777 40.9021 29.0947 43.8929C29.0947 43.8929 43.8906 41.9123 61.9241 56.346C67.7549 51.642 79.0449 42.0831 85.7884 39.1914L84.8043 38.2011C84.8043 38.2011 71.6175 46.0493 62.9033 54.1747Z" fill="#D8BFAB"/>
<path d="M61.9241 56.5614C61.875 56.5587 61.8282 56.5396 61.7913 56.5069C47.7089 45.2323 35.5971 44.0117 31.0383 44.0117C30.395 44.0041 29.7518 44.0339 29.112 44.1008C29.0614 44.1086 29.0097 44.0972 28.967 44.0689C28.9243 44.0405 28.8935 43.9972 28.8807 43.9473C28.8701 43.8993 28.8754 43.8491 28.8959 43.8044C28.9163 43.7597 28.9507 43.7229 28.9939 43.6998C30.1453 43.2195 31.5894 42.9768 33.2968 42.9768C41.4722 42.9768 54.5852 48.5944 62.8812 53.9173C71.492 45.9131 84.5312 38.102 84.6838 38.0278C84.7242 38.003 84.7716 37.9922 84.8187 37.9972C84.8658 38.0021 84.91 38.0224 84.9445 38.055L85.9286 39.0453C85.9511 39.0704 85.9674 39.1004 85.9763 39.133C85.9852 39.1655 85.9866 39.1997 85.9801 39.2328C85.9737 39.266 85.9597 39.2971 85.9392 39.3239C85.9187 39.3506 85.8924 39.3722 85.8622 39.387C79.9995 41.8999 70.6653 49.503 64.4901 54.5362C63.5995 55.2624 62.7852 55.9226 62.0471 56.5168C62.0126 56.5457 61.969 56.5615 61.9241 56.5614ZM31.0482 43.5735C35.6242 43.5735 47.7778 44.7941 61.9241 56.0613C62.6179 55.4993 63.4002 54.8754 64.222 54.1921C70.3234 49.2405 79.4754 41.7637 85.4071 39.1097L84.76 38.4586C83.3085 39.3375 71.1647 46.7573 63.0435 54.3258C63.0128 54.3601 62.9702 54.3812 62.9244 54.3849C62.8787 54.3886 62.8332 54.3745 62.7975 54.3456C54.5631 49.0301 41.4328 43.3853 33.2993 43.3853C32.5048 43.3792 31.7113 43.4422 30.9276 43.5735H31.0482Z" fill="black"/>
<path d="M29.0947 43.8929C34.832 43.9795 51.6994 50.112 60.7604 58.7871C69.819 50.4735 85.781 39.1914 85.781 39.1914C79.0449 42.0831 67.7549 51.6544 61.9167 56.346C43.8906 41.8999 29.0947 43.8929 29.0947 43.8929Z" fill="#D8BFAB"/>
<path d="M60.7605 59C60.7067 58.9969 60.6559 58.974 60.6178 58.9356C51.6601 50.367 34.8124 44.1875 29.0825 44.1008C29.03 44.0965 28.9806 44.0739 28.9428 44.0368C28.9051 43.9997 28.8814 43.9506 28.8759 43.8978C28.876 43.8436 28.8959 43.7913 28.9317 43.7507C28.9674 43.7102 29.0167 43.6841 29.0702 43.6775C29.7236 43.6041 30.381 43.5727 31.0384 43.5834C35.6144 43.5834 47.768 44.8039 61.9143 56.0712C62.6081 55.5092 63.3905 54.8853 64.2122 54.202C70.4144 49.1613 79.7757 41.531 85.6901 38.9983C85.7393 38.9748 85.7956 38.9711 85.8474 38.9879C85.8993 39.0047 85.9428 39.0407 85.9691 39.0887C85.9955 39.1367 86.0027 39.193 85.9892 39.2461C85.9758 39.2992 85.9427 39.3452 85.8967 39.3746C85.7294 39.481 69.8363 50.7433 60.8884 58.9331C60.8561 58.9713 60.8102 58.9953 60.7605 59ZM31.9413 44.0266C39.1892 45.4477 52.905 51.0652 60.7605 58.485C67.7673 52.0976 78.8654 43.9201 83.5004 40.5654C77.7115 43.7716 69.8978 50.1392 64.4951 54.5362C63.6045 55.2624 62.7902 55.9226 62.0521 56.5168C62.0164 56.5493 61.9699 56.5674 61.9217 56.5674C61.8735 56.5674 61.8271 56.5493 61.7913 56.5168C48.5479 45.8958 37.0414 44.1875 31.9413 44.0266Z" fill="black"/>
<path d="M27.0307 21.502C17.8239 26.3889 8.87318 31.7494 0.214111 37.5623C0.214111 37.5623 22.0044 33.6878 29.0973 43.8929C29.0973 43.8929 40.0453 35.042 51.1631 29.7216C51.1607 29.7216 42.5523 21.044 27.0307 21.502Z" fill="#F4E5D7"/>
<path d="M29.0948 44.1008H29.0554C29.0007 44.0878 28.9521 44.0564 28.9176 44.0117C24.9345 38.2605 16.1466 37.0548 9.48178 37.0548C6.39327 37.0533 3.30939 37.2951 0.258359 37.7777C0.209862 37.7876 0.159453 37.7801 0.115901 37.7564C0.0723497 37.7328 0.0384062 37.6946 0.0199785 37.6483C0.00155068 37.6021 -0.000195612 37.5509 0.0150382 37.5035C0.0302719 37.4561 0.0615255 37.4156 0.103363 37.389C8.76884 31.5696 17.727 26.2041 26.9421 21.3139C26.9692 21.2942 27.0022 21.2846 27.0356 21.2866C42.4662 20.8509 51.2246 29.479 51.3181 29.5607C51.3424 29.5842 51.3601 29.6137 51.3696 29.6463C51.3791 29.6789 51.38 29.7133 51.3722 29.7463C51.3673 29.7813 51.3537 29.8143 51.3326 29.8425C51.3115 29.8706 51.2837 29.8929 51.2517 29.9073C40.279 35.1633 29.3334 43.9647 29.2276 44.0538C29.1909 44.0859 29.1434 44.1027 29.0948 44.1008ZM9.48671 36.624C16.1835 36.624 24.9862 37.8446 29.1465 43.5834C30.5906 42.4297 40.6382 34.5741 50.7965 29.6547C49.3499 28.3475 40.9556 21.3263 27.0823 21.715C14.8992 28.1123 4.07419 35.2376 1.1219 37.2157C3.89353 36.8271 6.6883 36.6294 9.48671 36.624Z" fill="black"/>
<path d="M51.1606 29.7216C40.0428 35.042 29.0947 43.8929 29.0947 43.8929C36.1777 40.9021 53.1312 47.8541 62.9033 54.1747C71.6175 46.0493 84.7994 38.1937 84.7994 38.1937L85.7835 37.5623C85.7835 37.5623 70.7982 28.9962 51.1606 29.7216Z" fill="#F4E5D7"/>
<path d="M62.9034 54.3901C62.8675 54.391 62.8325 54.3787 62.8049 54.3555C54.5705 49.04 41.4403 43.3953 33.3067 43.3953C31.6682 43.3953 30.2757 43.623 29.176 44.086C29.1314 44.1027 29.0824 44.1031 29.0375 44.0873C28.9925 44.0715 28.9545 44.0404 28.93 43.9993C28.9144 43.9775 28.9034 43.9526 28.8977 43.9264C28.892 43.9001 28.8917 43.8729 28.8968 43.8465C28.9018 43.8201 28.9122 43.795 28.9272 43.7728C28.9422 43.7505 28.9616 43.7316 28.9841 43.7171C29.0825 43.6304 40.0552 34.8043 51.0795 29.5186C51.1101 29.5112 51.1414 29.5071 51.1729 29.5062C51.9455 29.4715 52.7426 29.4592 53.5373 29.4592C71.8488 29.4592 85.7663 37.3073 85.8918 37.3816C85.9271 37.3969 85.9572 37.422 85.9786 37.4541C86 37.4861 86.0117 37.5237 86.0124 37.5623C86.0127 37.6006 86.0031 37.6383 85.9846 37.6718C85.966 37.7052 85.9391 37.7332 85.9066 37.753L84.9225 38.3818C84.7822 38.4611 71.652 46.3191 63.051 54.3357C63.0313 54.3543 63.0081 54.3688 62.9827 54.3782C62.9574 54.3875 62.9304 54.3916 62.9034 54.3901ZM33.3067 42.9669C41.4821 42.9669 54.5951 48.5845 62.8911 53.9074C71.5019 45.9032 84.5411 38.0922 84.6937 38.0179L85.3653 37.5846C83.2077 36.4383 70.2053 29.88 53.5249 29.88C52.7442 29.88 51.9709 29.8957 51.2049 29.9271C42.1267 34.2844 33.0804 41.068 30.1822 43.2962C31.2066 43.0592 32.2558 42.9486 33.3067 42.9669Z" fill="black"/>
<g style="mix-blend-mode:multiply">
<path d="M27.0306 21.502C27.0306 21.502 27.0306 21.502 27.0035 21.5169C32.4333 22.8489 38.9012 25.3642 38.5666 29.7067C38.0598 36.3492 17.5439 31.8508 2.28064 36.1833L0.209106 37.5623C0.209106 37.5623 21.9994 33.6878 29.0923 43.8929C29.0923 43.8929 40.0403 35.042 51.1581 29.7216C51.1606 29.7216 42.5522 21.044 27.0306 21.502Z" fill="#F4E5D7"/>
</g>
<g style="mix-blend-mode:multiply">
<path d="M51.5985 33.7026C61.9709 30.2984 75.5686 35.6189 83.0551 39.2731C84.1475 38.5824 84.7945 38.1937 84.7945 38.1937L85.7786 37.5623C85.7786 37.5623 70.7958 28.9962 51.1582 29.7216C40.0403 35.042 29.0923 43.8929 29.0923 43.8929C36.1753 40.9021 53.1288 47.8541 62.9009 54.1747C63.3929 53.7316 63.885 53.3033 64.3598 52.8601C56.0836 42.6723 39.2408 37.7381 51.5985 33.7026Z" fill="#F4E5D7"/>
</g>
<path d="M25.6849 30.8976C24.4696 31.0511 19.0423 31.7566 20.7645 33.8041C21.3014 34.3514 21.9239 34.8064 22.6072 35.1509C23.9628 35.8813 25.4217 36.4705 26.9396 36.6364C28.5978 36.884 31.4246 36.1809 30.0568 34.017C29.1784 32.7618 27.6949 32.1107 26.3664 31.4571L26.172 31.3704L26.145 31.358H26.1573C26.1155 31.5784 26.61 30.9149 26.3615 30.9718C26.3074 30.9248 26.3418 30.9545 26.327 30.9446L26.3516 30.9595C28.6544 32.0339 31.1491 32.9401 33.7028 33.0366C35.4422 33.0688 36.6305 32.3533 36.8396 30.8084C36.1631 28.2114 33.7446 26.4758 31.2229 25.899C29.925 25.6104 28.5942 25.5005 27.2669 25.5722C25.933 25.6454 24.6065 25.8192 23.2985 26.0921L23.36 26.0475C22.5063 27.9613 24.317 29.7934 25.6972 30.8976H25.6849ZM25.6849 30.8976C24.1916 29.8181 22.3144 27.9539 23.1804 25.946L23.1976 25.9114H23.2419C24.5552 25.5944 25.8924 25.3882 27.2398 25.2949C29.9239 25.129 32.8418 25.5128 34.9945 27.2755C36.0982 28.1601 36.8956 29.3733 37.2726 30.7416C37.1225 32.7222 35.4742 33.5491 33.6905 33.507C31.0876 33.4451 28.652 32.5316 26.3246 31.4645C26.2107 31.4173 26.1032 31.3557 26.0048 31.2813C25.7587 31.3358 26.2508 30.6673 26.2139 30.8901C26.2803 30.9078 26.3447 30.9327 26.4058 30.9644C28.0689 31.7938 30.5882 32.8559 30.8342 34.9702C30.8387 35.082 30.8321 35.1939 30.8145 35.3044C30.6964 36.0818 29.9805 36.6215 29.2867 36.8345C26.9323 37.4905 24.4966 36.5052 22.4645 35.3861C17.175 32.3533 22.4473 31.0932 25.6825 30.8901L25.6849 30.8976Z" fill="#231F20"/>
<path d="M29.2473 26.9859C29.6409 27.1839 29.2055 28.1148 29.2055 28.1148C29.2055 28.1148 29.9165 27.4018 30.2511 27.5503C30.5856 27.6989 30.2904 28.8402 30.2904 28.8402C30.2904 28.8402 30.9374 28.2114 31.3434 28.4119C31.7493 28.6124 31.3729 29.4616 31.3729 29.4616L28.4698 31.3184C28.4698 31.3184 28.428 30.6327 27.4341 30.6871L28.3567 27.2879C28.3567 27.2879 28.8487 26.7779 29.2473 26.9859Z" fill="#E5C093"/>
<path d="M49.2097 0.888802L30.2905 28.8328C30.2905 28.8328 30.9375 28.2039 31.3435 28.4045C31.7494 28.605 31.373 29.4542 31.373 29.4542L49.8469 2.04746L49.2097 0.888802Z" fill="#1E5DE0"/>
<path d="M48.1296 0.153496L29.2104 28.1024C29.2474 28.0653 29.9239 27.3993 30.2511 27.5429C30.5783 27.6865 30.2905 28.8328 30.2905 28.8328L49.2097 0.888799L48.1296 0.153496Z" fill="#004BC9"/>
<path d="M46.8503 0L28.3567 27.2805C28.3567 27.2805 28.8487 26.7853 29.2473 26.9784C29.6458 27.1715 29.2055 28.1074 29.2055 28.1074L48.1247 0.158453L46.8503 0Z" fill="#0047B3"/>
<g opacity="0.5">
<path d="M49.2097 0.888802L30.7211 28.2015C30.7211 28.2015 44.3581 8.06853 49.2392 0.908612L49.2097 0.888802Z" fill="#004BC9"/>
</g>
<g opacity="0.5">
<path d="M48.1296 0.153496L29.6779 27.4266C29.6779 27.4266 43.2977 7.31589 48.169 0.173306L48.1296 0.153496Z" fill="#004BC9"/>
</g>
<path d="M28.4699 31.311L27.0085 32.2469L27.4342 30.6797C28.4306 30.6252 28.4699 31.311 28.4699 31.311Z" fill="#004BC9"/>
<path style="mix-blend-mode:multiply" opacity="0.1" d="M30.9203 28.605C30.7794 28.6399 30.6406 28.6829 30.5046 28.7337L30.3274 28.8006C30.4701 28.6719 30.9941 28.2336 31.3435 28.4045C31.3906 28.4281 31.4312 28.463 31.4616 28.5062C31.4921 28.5494 31.5115 28.5995 31.5182 28.652C31.4564 28.6123 31.3867 28.5869 31.3139 28.5778C31.1823 28.56 31.0484 28.5693 30.9203 28.605Z" fill="url(#paint0_linear_784_1616)"/>
<path style="mix-blend-mode:multiply" opacity="0.1" d="M28.6765 30.8208C28.7241 30.806 28.7725 30.7945 28.8216 30.7862L28.8955 30.7688C28.9245 30.7614 28.955 30.7614 28.984 30.7688C29.0038 30.7718 29.0222 30.7811 29.0364 30.7954C29.0506 30.8096 29.0598 30.8281 29.0627 30.8481C29.072 30.877 29.072 30.9082 29.0627 30.9372L28.9373 31.0164C28.959 30.9807 28.9763 30.9424 28.9889 30.9025C28.9933 30.8871 28.9933 30.8709 28.9889 30.8555C28.9889 30.8555 28.9889 30.8555 28.9742 30.8555C28.9555 30.8518 28.9363 30.8518 28.9176 30.8555L28.8462 30.8753C28.798 30.885 28.7504 30.8974 28.7035 30.9124L28.4231 31.0164L28.3739 31.0337C28.3567 31.009 28.3345 30.9818 28.3124 30.9545L28.3886 30.9223L28.6765 30.8208Z" fill="url(#paint1_linear_784_1616)"/>
<path style="mix-blend-mode:multiply" opacity="0.1" d="M27.8573 30.3975C28.0349 30.3826 28.2135 30.3826 28.3912 30.3975C28.568 30.4105 28.7438 30.4345 28.9176 30.4693C29.0013 30.4841 29.08 30.5039 29.1637 30.5213C29.2377 30.5339 29.3108 30.5512 29.3826 30.5732C29.402 30.5813 29.4185 30.595 29.4299 30.6127C29.4414 30.6304 29.4472 30.6512 29.4466 30.6723V30.702L29.3949 30.7342C29.4122 30.6896 29.4146 30.6376 29.3654 30.6228C29.3162 30.6079 29.2326 30.6054 29.1587 30.5906L28.9127 30.5534C28.7479 30.5312 28.5708 30.5039 28.3936 30.494C28.2208 30.4829 28.0474 30.4829 27.8745 30.494C27.7909 30.494 27.7097 30.494 27.6285 30.5188L27.476 30.546L27.4932 30.4792L27.6162 30.447C27.6956 30.4261 27.7761 30.4096 27.8573 30.3975Z" fill="url(#paint2_linear_784_1616)"/>
<path style="mix-blend-mode:multiply" opacity="0.1" d="M28.1132 30.036C28.2575 30.0556 28.4031 30.0638 28.5486 30.0608C28.8439 30.0608 29.144 30.0608 29.422 30.041C29.558 30.0323 29.6944 30.0323 29.8304 30.041C29.898 30.0459 29.9636 30.0662 30.0223 30.1004C30.0488 30.1198 30.0693 30.1464 30.0815 30.1771C30.0937 30.2077 30.097 30.2412 30.0912 30.2737L30.0248 30.3158C30.0262 30.3026 30.0262 30.2893 30.0248 30.2761C30.0296 30.2527 30.0272 30.2283 30.018 30.2062C30.0088 30.1841 29.9931 30.1653 29.9731 30.1524C29.9225 30.127 29.8672 30.1127 29.8107 30.1103C29.6902 30.1103 29.5524 30.1103 29.4122 30.1251C29.1342 30.14 28.8365 30.1598 28.5363 30.1598C28.3857 30.1602 28.2352 30.1495 28.0861 30.1276C27.9325 30.1167 27.7866 30.0558 27.6703 29.9543C27.6564 29.9356 27.644 29.9157 27.6334 29.8949L27.6728 29.7562C27.6844 29.8055 27.7044 29.8524 27.7318 29.8949C27.84 29.983 27.9741 30.0326 28.1132 30.036Z" fill="url(#paint3_linear_784_1616)"/>
<path style="mix-blend-mode:multiply" opacity="0.1" d="M28.9226 27.6246C28.7799 27.8722 28.6274 28.1916 28.4773 28.5258C28.3989 28.6976 28.3299 28.8737 28.2706 29.0531C28.2406 29.1432 28.216 29.2349 28.1968 29.3279C28.1845 29.375 28.1845 29.427 28.1772 29.474C28.1685 29.5148 28.1685 29.557 28.1772 29.5978C28.1963 29.6355 28.2231 29.6689 28.2557 29.6957C28.2883 29.7226 28.326 29.7423 28.3666 29.7538C28.455 29.7833 28.5468 29.8016 28.6397 29.8082C28.8264 29.8219 29.0139 29.8219 29.2006 29.8082C29.5647 29.7785 29.9042 29.729 30.1995 29.7042C30.272 29.6933 30.3458 29.6933 30.4184 29.7042C30.4553 29.7114 30.4885 29.7316 30.5119 29.7612C30.5315 29.7912 30.5402 29.827 30.5365 29.8627C30.5294 29.9134 30.5144 29.9627 30.4922 30.0088L30.4529 30.0335C30.4802 29.9796 30.4961 29.9206 30.4996 29.8602C30.5013 29.8466 30.5002 29.8328 30.4964 29.8197C30.4925 29.8065 30.486 29.7943 30.4772 29.7839C30.4684 29.7734 30.4575 29.7649 30.4453 29.7588C30.4331 29.7528 30.4197 29.7494 30.4061 29.7488C30.3392 29.7391 30.2713 29.7391 30.2044 29.7488C29.9141 29.781 29.5746 29.8503 29.2203 29.8825C29.0291 29.9025 28.8366 29.9075 28.6446 29.8974C28.5433 29.8916 28.4432 29.8725 28.3469 29.8404C28.2936 29.8246 28.2441 29.7976 28.2018 29.7614C28.1594 29.7252 28.125 29.6804 28.1009 29.63C28.0832 29.5758 28.0773 29.5183 28.0837 29.4616C28.0837 29.4121 28.0837 29.3626 28.1058 29.3131C28.1262 29.215 28.1525 29.1183 28.1845 29.0234C28.251 28.8353 28.3223 28.657 28.401 28.4887C28.556 28.1519 28.7283 27.8499 28.8759 27.5949C29.0235 27.3399 29.1662 27.1344 29.267 26.9933C29.1908 27.1517 29.0702 27.3647 28.9226 27.6246Z" fill="url(#paint4_linear_784_1616)"/>
<path style="mix-blend-mode:multiply" opacity="0.1" d="M31.2943 29.1769C31.2795 29.1101 31.2106 29.0754 31.1417 29.0556C30.9777 29.0288 30.8098 29.0381 30.6497 29.0828C30.4648 29.1302 30.2831 29.1898 30.106 29.2611L29.5352 29.5087C29.4349 29.5506 29.3312 29.5837 29.2252 29.6077C29.169 29.6224 29.1109 29.6282 29.053 29.625C29.0199 29.6239 28.9874 29.6161 28.9574 29.6021C28.9274 29.5881 28.9004 29.5681 28.8783 29.5433C28.8388 29.4939 28.8156 29.4333 28.8119 29.37C28.8119 29.3403 28.8119 29.3106 28.8119 29.2809V29.1967V29.1175L28.8389 29.0383C28.8537 28.9841 28.8726 28.9311 28.8955 28.8798C28.9801 28.6886 29.0788 28.5041 29.1907 28.3277C29.2965 28.1569 29.4122 27.996 29.5204 27.8474L29.5549 27.8004C29.609 27.7608 29.6656 27.7236 29.7222 27.6865C29.5721 27.8945 29.4146 28.1247 29.2621 28.3723C29.1542 28.5464 29.0596 28.7285 28.9792 28.917C28.957 28.964 28.9447 29.011 28.9275 29.0581L28.9054 29.1299V29.2116C28.8822 29.3029 28.8955 29.3998 28.9423 29.4814C28.989 29.5409 29.0997 29.5384 29.1883 29.5161C29.2887 29.4927 29.3874 29.4621 29.4835 29.4245L30.0592 29.1918C30.2404 29.1202 30.4272 29.0639 30.6177 29.0234C30.7902 28.9811 30.9699 28.9769 31.1442 29.011C31.2229 29.0383 31.309 29.0853 31.3262 29.172C31.3441 29.2444 31.3389 29.3206 31.3115 29.3898C31.2932 29.441 31.271 29.4907 31.245 29.5384L31.2057 29.5631C31.236 29.5045 31.2607 29.4432 31.2795 29.3799C31.3061 29.3156 31.3113 29.2444 31.2943 29.1769Z" fill="url(#paint5_linear_784_1616)"/>
<path style="mix-blend-mode:multiply" opacity="0.1" d="M30.2905 28.8328C30.2914 28.8254 30.2914 28.8179 30.2905 28.8105H30.32L30.2905 28.8328Z" fill="url(#paint6_linear_784_1616)"/>
<path style="mix-blend-mode:multiply" opacity="0.1" d="M30.9374 28.6743C30.8095 28.7115 30.6742 28.7635 30.534 28.8155L30.1034 28.9788C29.9526 29.044 29.7937 29.0881 29.6311 29.1101C29.5808 29.1154 29.5301 29.105 29.4859 29.0804C29.4631 29.064 29.445 29.0419 29.4333 29.0163C29.4216 28.9906 29.4169 28.9624 29.4195 28.9343C29.4181 28.9112 29.4181 28.8881 29.4195 28.865V28.8501V28.8229C29.4336 28.7844 29.4509 28.7471 29.4711 28.7115C29.5522 28.5744 29.6488 28.4473 29.759 28.3327C29.8559 28.224 29.9585 28.1207 30.0665 28.0232C30.1674 27.9291 30.2658 27.8449 30.3568 27.7756C30.3568 27.7954 30.3568 27.8152 30.3568 27.8375C30.1871 27.9984 29.9952 28.1866 29.8057 28.3995C29.704 28.5096 29.6149 28.6309 29.54 28.761C29.5201 28.7935 29.5043 28.8284 29.4933 28.865V28.8922C29.4908 28.9094 29.4908 28.9269 29.4933 28.9442C29.4933 28.9764 29.4933 28.9962 29.5154 29.0061C29.5429 29.0194 29.5737 29.0246 29.604 29.0209C29.7565 28.9988 29.9059 28.9589 30.0493 28.9021L30.2756 28.8179C30.2765 28.8253 30.2765 28.8328 30.2756 28.8402L30.3125 28.808L30.4897 28.7412C30.6257 28.6903 30.7645 28.6473 30.9055 28.6124C31.033 28.5742 31.1669 28.5624 31.2991 28.5778C31.3718 28.5869 31.4416 28.6123 31.5033 28.652C31.5047 28.6702 31.5047 28.6884 31.5033 28.7065C31.4361 28.6645 31.3605 28.6383 31.2819 28.6298C31.1653 28.6222 31.0483 28.6374 30.9374 28.6743Z" fill="url(#paint7_linear_784_1616)"/>
<g style="mix-blend-mode:multiply">
<path d="M47.7704 5.12731L49.8444 2.04746L49.2072 0.888802L47.0767 4.0256L47.7704 5.12731Z" fill="#1E5DE0"/>
<path d="M47.0767 4.0256L49.2073 0.888798L48.1297 0.153496L45.9991 3.29029L47.0767 4.0256Z" fill="#004BC9"/>
<path d="M45.9991 3.29029L48.1297 0.153498L46.8504 0L44.7592 3.06995L45.9991 3.29029Z" fill="#0047B3"/>
<g opacity="0.5">
<path d="M47.0964 4.03798C48.6095 1.80979 48.2232 2.39902 49.2393 0.908612L49.2098 0.888802L47.0792 4.0256L47.0964 4.03798Z" fill="#004BC9"/>
</g>
<g opacity="0.5">
<path d="M46.0164 3.30267C47.5319 1.07448 47.1456 1.66124 48.1617 0.173306L48.1297 0.153496L45.9991 3.2903L46.0164 3.30267Z" fill="#004BC9"/>
</g>
</g>
</g>
<defs>
<linearGradient id="paint0_linear_784_1616" x1="22.264" y1="24.6227" x2="25.8648" y2="26.5092" gradientUnits="userSpaceOnUse">
<stop offset="0.03" stop-color="#6A4401"/>
<stop offset="0.89" stop-color="#EBB00D"/>
</linearGradient>
<linearGradient id="paint1_linear_784_1616" x1="20.8561" y1="27.3163" x2="24.4542" y2="29.2027" gradientUnits="userSpaceOnUse">
<stop offset="0.03" stop-color="#6A4401"/>
<stop offset="0.89" stop-color="#EBB00D"/>
</linearGradient>
<linearGradient id="paint2_linear_784_1616" x1="20.9415" y1="27.1485" x2="24.5447" y2="29.0326" gradientUnits="userSpaceOnUse">
<stop offset="0.03" stop-color="#6A4401"/>
<stop offset="0.89" stop-color="#EBB00D"/>
</linearGradient>
<linearGradient id="paint3_linear_784_1616" x1="21.2454" y1="26.5705" x2="24.8462" y2="28.4545" gradientUnits="userSpaceOnUse">
<stop offset="0.03" stop-color="#6A4401"/>
<stop offset="0.89" stop-color="#EBB00D"/>
</linearGradient>
<linearGradient id="paint4_linear_784_1616" x1="21.9014" y1="25.3174" x2="25.5022" y2="27.2014" gradientUnits="userSpaceOnUse">
<stop offset="0.03" stop-color="#6A4401"/>
<stop offset="0.89" stop-color="#EBB00D"/>
</linearGradient>
<linearGradient id="paint5_linear_784_1616" x1="21.9282" y1="25.2639" x2="25.5315" y2="27.148" gradientUnits="userSpaceOnUse">
<stop offset="0.03" stop-color="#6A4401"/>
<stop offset="0.89" stop-color="#EBB00D"/>
</linearGradient>
<linearGradient id="paint6_linear_784_1616" x1="22.0715" y1="25.0131" x2="25.6582" y2="26.8887" gradientUnits="userSpaceOnUse">
<stop offset="0.03" stop-color="#6A4401"/>
<stop offset="0.89" stop-color="#EBB00D"/>
</linearGradient>
<linearGradient id="paint7_linear_784_1616" x1="22.1468" y1="24.8462" x2="25.75" y2="26.7303" gradientUnits="userSpaceOnUse">
<stop offset="0.03" stop-color="#6A4401"/>
<stop offset="0.89" stop-color="#EBB00D"/>
</linearGradient>
<clipPath id="clip0_784_1616">
<rect width="86" height="59" fill="white"/>
</clipPath>
</defs>
</svg>
