<svg width="68" height="52" viewBox="0 0 68 52" fill="none" xmlns="http://www.w3.org/2000/svg">
<g clip-path="url(#clip0_784_1661)">
<path d="M25.1595 9.51238C25.1595 9.51238 30.4142 6.45374 43.0532 9.51238C43.0532 9.51238 57.1604 16.2108 53.2534 33.9815L14.4153 33.7093C14.4153 33.7093 9.97047 17.5169 25.1595 9.51238Z" fill="black"/>
<path d="M16.7459 33.8592C16.7459 33.8592 9.29974 32.1647 11.7571 39.4565C11.7571 39.4565 13.692 43.2156 18.2481 41.6679C18.2481 41.6679 20.554 51.9817 34.2532 51.9817C34.2532 51.9817 45.3467 52.939 49.365 41.6679C49.365 41.6679 56.3629 43.7294 56.5144 36.5844C56.5144 36.5844 55.9178 32.2381 50.929 34.0794C50.929 34.0794 53.4018 16.4586 33.8915 16.7981C33.8792 16.7981 15.3302 15.9569 16.7459 33.8592Z" fill="#C57D4C"/>
<path d="M29.7744 37.8935C29.7744 37.8935 29.9691 32.4644 23.3884 33.0242C22.4262 33.1035 21.5064 33.4511 20.7356 34.0265C19.9648 34.6019 19.3746 35.3817 19.0333 36.2755C19.0147 36.3214 18.9962 36.3703 18.9807 36.4193C18.9807 36.4284 21.6606 41.2795 29.7744 37.8935Z" fill="white"/>
<path d="M20.9156 31.556C20.9156 31.556 24.1148 29.4945 27.6138 31.189C27.6138 31.189 28.3587 30.0084 27.3047 29.4211C26.2507 28.8338 22.6281 29.1978 20.9156 31.556Z" fill="black" stroke="black" stroke-miterlimit="10"/>
<path d="M25.0482 39.0711C26.4668 39.0711 27.6168 37.9331 27.6168 36.5294C27.6168 35.1256 26.4668 33.9877 25.0482 33.9877C23.6296 33.9877 22.4796 35.1256 22.4796 36.5294C22.4796 37.9331 23.6296 39.0711 25.0482 39.0711Z" fill="black"/>
<path d="M26.3867 36.7129C27.0644 36.7129 27.6138 36.1693 27.6138 35.4986C27.6138 34.828 27.0644 34.2843 26.3867 34.2843C25.7089 34.2843 25.1595 34.828 25.1595 35.4986C25.1595 36.1693 25.7089 36.7129 26.3867 36.7129Z" fill="white"/>
<path d="M22.6064 38.8754L20.3191 37.0861C20.3191 37.0861 21.5895 34.5504 22.8908 34.3088C24.1921 34.0672 25.3821 33.7705 27.2429 34.581C27.2429 34.581 28.3989 34.9725 29.7157 37.1717C29.7157 37.1717 29.286 34.2018 26.8782 33.4157L26.5691 33.3086C25.0749 32.832 23.4652 32.8449 21.979 33.3453C21.2915 33.6271 20.6703 34.0464 20.1544 34.577C19.6384 35.1075 19.2388 35.7379 18.9807 36.4284C19.8373 37.6642 21.131 38.5373 22.6064 38.8754Z" fill="black"/>
<path d="M22.4797 43.344C23.9597 43.344 25.1596 42.6183 25.1596 41.723C25.1596 40.8277 23.9597 40.1019 22.4797 40.1019C20.9996 40.1019 19.7998 40.8277 19.7998 41.723C19.7998 42.6183 20.9996 43.344 22.4797 43.344Z" fill="#B26C3D"/>
<path d="M37.6285 37.8935C37.6285 37.8935 37.4338 32.4644 44.0145 33.0242C44.9777 33.1028 45.8987 33.4499 46.6706 34.0254C47.4425 34.6009 48.0338 35.3811 48.3759 36.2755C48.3944 36.3214 48.413 36.3703 48.4284 36.4193C48.4222 36.4284 45.7424 41.2795 37.6285 37.8935Z" fill="white"/>
<path d="M46.4873 31.556C46.4873 31.556 43.285 29.4945 39.7861 31.189C39.7861 31.189 39.0442 30.0084 40.0951 29.4211C41.1461 28.8338 44.7749 29.1978 46.4873 31.556Z" fill="black" stroke="black" stroke-miterlimit="10"/>
<path d="M42.3546 39.0711C43.7732 39.0711 44.9232 37.9331 44.9232 36.5294C44.9232 35.1256 43.7732 33.9877 42.3546 33.9877C40.936 33.9877 39.786 35.1256 39.786 36.5294C39.786 37.9331 40.936 39.0711 42.3546 39.0711Z" fill="black"/>
<path d="M41.0162 36.7129C41.6939 36.7129 42.2433 36.1693 42.2433 35.4986C42.2433 34.828 41.6939 34.2843 41.0162 34.2843C40.3385 34.2843 39.7891 34.828 39.7891 35.4986C39.7891 36.1693 40.3385 36.7129 41.0162 36.7129Z" fill="white"/>
<path d="M44.7965 38.8754L47.0838 37.0861C47.0838 37.0861 45.8103 34.5504 44.5121 34.3088C43.2139 34.0672 42.0208 33.7705 40.16 34.581C40.16 34.581 39.004 34.9725 37.6873 37.1717C37.6873 37.1717 38.1169 34.2018 40.5248 33.4157L40.8339 33.3086C42.327 32.832 43.9357 32.8449 45.4209 33.3453C46.1088 33.6269 46.7305 34.0461 47.247 34.5767C47.7635 35.1072 48.1636 35.7377 48.4222 36.4284C47.5656 37.6642 46.2719 38.5373 44.7965 38.8754Z" fill="black"/>
<path d="M44.9233 43.344C46.4033 43.344 47.6032 42.6183 47.6032 41.723C47.6032 40.8277 46.4033 40.1019 44.9233 40.1019C43.4432 40.1019 42.2434 40.8277 42.2434 41.723C42.2434 42.6183 43.4432 43.344 44.9233 43.344Z" fill="#B26C3D"/>
<path d="M39.2667 42.7874L38.7598 43.6224C38.3958 44.2285 37.9109 44.7551 37.3348 45.17C36.4675 45.7778 35.4416 46.1256 34.3799 46.1717C33.3181 46.2178 32.2654 45.9603 31.3476 45.43C30.5936 44.9895 29.9642 44.3677 29.5177 43.6224L29.0139 42.7874H39.2667Z" fill="#C1272D"/>
<path d="M37.3349 45.17C36.4675 45.7778 35.4417 46.1256 34.3799 46.1717C33.3182 46.2178 32.2655 45.9603 31.3477 45.43C32.1416 44.671 33.1886 44.2256 34.2915 44.1777C35.3944 44.1298 36.4768 44.4828 37.3349 45.17Z" fill="#FF0000"/>
<path d="M37.6131 42.7874C37.4809 43.0693 37.2696 43.3078 37.0044 43.4742C36.7391 43.6407 36.4311 43.7282 36.117 43.7264H33.0941C32.7799 43.7286 32.4717 43.6413 32.2064 43.4747C31.9411 43.3082 31.7299 43.0696 31.598 42.7874H37.6131Z" fill="white"/>
<path opacity="0.21" d="M17.1464 39.2809C17.4512 38.8466 17.2198 38.1657 16.6295 37.7601C16.0392 37.3544 15.3136 37.3776 15.0088 37.8118C14.704 38.2461 14.9354 38.927 15.5257 39.3327C16.116 39.7384 16.8416 39.7152 17.1464 39.2809Z" fill="white"/>
<path opacity="0.21" d="M51.768 39.3083C52.3583 38.9027 52.5898 38.2218 52.285 37.7875C51.9802 37.3532 51.2546 37.33 50.6643 37.7357C50.074 38.1414 49.8425 38.8223 50.1473 39.2566C50.4521 39.6908 51.1777 39.714 51.768 39.3083Z" fill="white"/>
<path d="M53.8252 25.6712C53.8252 25.6712 57.2438 26.9344 58.2886 23.9125C58.2886 23.9125 62.7674 26.1178 63.9512 21.0741C63.9512 21.0741 67.7407 21.334 66.6249 16.1038C66.6249 16.1038 68.8226 14.5438 66.832 10.8674C66.832 10.8674 68.1148 8.88536 65.6574 6.74737C65.6574 6.74737 67.4471 1.32133 60.7459 1.93612C60.7459 1.93612 58.6595 -1.5018 54.7154 1.01853C54.7154 1.01853 51.4389 -1.78013 48.7591 1.97588C48.7591 1.97588 44.4317 1.82907 44.2926 5.64625C44.2926 5.64625 41.4427 7.94024 43.0562 9.5185L53.8252 25.6712Z" fill="black"/>
<path d="M13.9517 25.7048C13.9517 25.7048 10.7896 26.3349 9.73869 23.6923C9.73869 23.6923 6.61062 26.0505 4.37893 21.5512C4.37893 21.5512 -0.0133422 20.5174 1.47342 15.9508C1.47342 15.9508 -0.461537 13.4458 1.62487 11.0876C1.62487 11.0876 0.135024 8.58561 2.8149 6.89112C2.8149 6.89112 1.32505 1.29075 7.65537 2.02788C7.65537 2.02788 9.08031 -1.6639 13.8033 1.0277C13.8033 1.0277 16.6625 -1.69755 19.7875 2.07988C19.7875 2.07988 23.8057 1.14393 23.9572 6.00717C23.9572 6.00717 25.8921 5.49026 25.7438 9.8366L13.9517 25.7048Z" fill="black"/>
<path d="M16.7459 34.2874C16.7459 34.2874 14.6441 20.1228 28.5565 17.7952C28.5565 17.7952 33.9812 15.8866 42.2434 18.5109C42.2434 18.5109 52.0696 20.548 50.9167 34.5107L52.0727 34.1742C52.0727 34.1742 54.4898 16.9755 41.7612 14.3236C41.7612 14.3236 30.5131 11.944 24.0839 14.9629C23.7748 15.1036 23.4657 15.2351 23.1566 15.3605C21.5926 15.9967 16.1865 18.9177 15.6146 28.9837L16.0597 34.1559L16.7459 34.2874Z" fill="#FF9686"/>
</g>
<defs>
<clipPath id="clip0_784_1661">
<rect width="67" height="52" fill="white" transform="translate(0.666626)"/>
</clipPath>
</defs>
</svg>
