<svg width="25" height="24" viewBox="0 0 25 24" fill="none" xmlns="http://www.w3.org/2000/svg">
<g id="Icons">
<path id="Icon" d="M5.59697 20.8214H19.1786C20.2502 20.8214 21.1188 19.9527 21.1188 18.8812V5.29955C21.1188 4.22799 20.2502 3.35931 19.1786 3.35931H5.59697C4.52541 3.35931 3.65674 4.22799 3.65674 5.29955V18.8812C3.65674 19.9527 4.52541 20.8214 5.59697 20.8214ZM5.59697 20.8214L16.2683 10.1501L21.1188 15.0007M10.4476 8.69496C10.4476 9.49863 9.79605 10.1501 8.99238 10.1501C8.18871 10.1501 7.5372 9.49863 7.5372 8.69496C7.5372 7.89128 8.18871 7.23978 8.99238 7.23978C9.79605 7.23978 10.4476 7.89128 10.4476 8.69496Z" stroke="#667085" stroke-width="1.41108" stroke-linecap="round" stroke-linejoin="round"/>
</g>
</svg>
